<?xml version="1.0" encoding="utf-8"?>
<svg viewBox="0 0 278.48 114.18">
    <g stroke="currentColor" stroke-width="0" stroke-linejoin="round" stroke-miterlimit="10">
        <path class="st9" d="M256.55,95.71"/>
        <g>
            <path d="M11.65,58.67v-20.2h11.68v-3H11.65V16.74h17.54v-3H10.15c-0.83,0-1.5,0.67-1.5,1.5v44.88c0,0.69,0.47,1.29,1.13,1.45
                l0.23,0.06c0.12,0.03,0.24,0.05,0.37,0.05c0,0,0,0,0,0l20.03-0.03l0-3L11.65,58.67z"/>
            <rect x="74.49" y="13.76" width="3" height="47.79"/>
            <path d="M97.26,62.97h2.46c6.69,0,12.13-6.58,12.13-14.66v-5.55c0-0.83-0.67-1.5-1.5-1.5H99.8v3h9.05v4.05
                c0,6.43-4.09,11.66-9.13,11.66h-2.46c-5.03,0-9.13-5.23-9.13-11.66V28.16c0-5.8,3.13-11.66,9.13-11.66h10.37v-3H97.26
                c-7.03,0-12.13,6.17-12.13,14.66V48.3C85.13,56.39,90.57,62.97,97.26,62.97z"/>
            <path d="M135.88,43.01c4.46-1.67,7.09-6.39,7.52-13.71c0.15-6.12-0.99-10.34-3.48-12.9c-1.74-1.78-4.1-2.69-7-2.69h-14.27v47.83h3
                l0-17.83h10.63v-0.01c0.22-0.01,0.44-0.03,0.65-0.05l5.9,17.93h3.13L135.88,43.01z M131.88,40.7h-10.24v-24h11.27
                c2.1,0,3.68,0.58,4.85,1.78c1.88,1.92,2.76,5.54,2.63,10.68C139.95,36.82,137.08,40.7,131.88,40.7z"/>
            <path d="M151.29,47.99h14.26l3.47,13.59h3.1L160.04,13.7h-3.24l-12.08,47.87h3.1L151.29,47.99z M158.42,19.48l6.36,25.5h-12.72
                L158.42,19.48z"/>
            <polygon points="195.36,16.69 195.36,13.69 168.33,13.69 168.33,16.69 180.31,16.69 180.31,61.57 183.31,61.57 183.31,16.69 		"/>
            <rect x="176.74" y="36.12" transform="matrix(2.278640e-03 -1 1 2.278640e-03 162.6142 238.2275)" width="47.9" height="3"/>
            <path d="M226.3,12.33h-3.06c-6.69,0-12.13,6.58-12.13,14.66v21.01c0,8,5.33,14.53,11.92,14.66c0.04,0,0.09,0.01,0.13,0.01h3.14
                c0.04,0,0.07,0,0.11,0c6.58-0.07,11.93-6.52,12.01-14.47l0-21.2C238.43,18.91,232.99,12.33,226.3,12.33z M235.43,48.01
                c0,6.43-4.09,11.66-9.13,11.66c-0.03,0-0.07,0-0.1,0h-2.86c-0.03,0-0.07,0-0.1,0c-5.03,0-9.13-5.23-9.13-11.66V26.99
                c0-6.43,4.09-11.66,9.13-11.66h3.06c5.03,0,9.13,5.23,9.13,11.66V48.01z"/>
            <polygon points="268.53,13.76 268.53,45.94 249.08,17.6 249.08,13.7 246.08,13.7 246.08,61.57 249.08,61.57 249.08,22.9 
                268.53,51.24 268.53,61.57 271.53,61.57 271.53,13.76 		"/>
        </g>
        <path d="M62.22,13.74L50.08,44.45L38.45,13.74h-2.85c-0.05,0.15-0.08,0.3-0.08,0.47v47.33h3V22.4l10.09,26.64
            c0.04,0.15,0.11,0.29,0.2,0.42c0.56,0.82,1.92,0.82,2.48,0.01c0.09-0.14,0.16-0.29,0.21-0.44l10.65-26.95v39.46h3V14.2
            c0-0.16-0.03-0.32-0.08-0.47H62.22z"/>
    </g>
    <g stroke="currentColor" stroke-width="0" stroke-linejoin="round" stroke-miterlimit="10">
        <g>
            <path d="M100.06,100.16H88.76c-0.55,0-1-0.45-1-1V75.44c0-0.55,0.45-1,1-1h11.22v2H89.76v21.71h10.29V100.16z"/>
            <rect x="88.76" y="85.74" width="6.73" height="2"/>
        </g>
        <rect x="131.89" y="74.41" width="2" height="25.79"/>
        <g>
            <rect x="140.6" y="74.47" width="2" height="25.76"/>
            <rect x="153.67" y="74.47" width="2" height="25.77"/>
            <rect x="147.08" y="75.59" transform="matrix(0.7798 -0.6261 0.6261 0.7798 -21.1438 111.6211)" width="2" height="20.54"/>
        </g>
        <g>
            <polygon points="59.03,100.17 49.94,100.17 49.94,74.46 58.55,74.46 58.55,76.46 51.94,76.46 51.94,98.17 59.03,98.17 		"/>
            <rect x="50.94" y="85.75" width="10.94" height="2"/>
            <path d="M65.26,81.27h-2c0-2.65-2.11-4.81-4.71-4.81v-2C62.25,74.46,65.26,77.51,65.26,81.27z"/>
            <path d="M59.03,100.17v-2c2.81,0,5.18-2.87,5.18-6.28h2C66.21,96.46,62.99,100.17,59.03,100.17z"/>
            <path d="M60.88,87.75v-2c1.13,0,2.39-1.91,2.39-4.48h2C65.26,84.84,63.29,87.75,60.88,87.75z"/>
            <path d="M66.21,91.89h-2c0-2.44-1.23-4.14-2.33-4.14v-2C64.31,85.75,66.21,88.45,66.21,91.89z"/>
        </g>
        <path class="st11" d="M210.12,93.33"/>
        <path d="M198.98,100.55c-0.03,0-0.05,0-0.08,0c-3.86-0.07-6.98-3.55-6.98-7.81V81.87c0-4.31,3.18-7.81,7.1-7.81h1.76
            c3.91,0,7.1,3.5,7.1,7.81h-2c0-3.2-2.29-5.81-5.1-5.81h-1.76c-2.81,0-5.1,2.61-5.1,5.81v10.87c0,3.2,2.29,5.81,5.1,5.81
            c0.02,0,0.04,0,0.06,0h1.7c2.81,0,5.1-2.61,5.1-5.81h2c0,4.31-3.18,7.81-7.1,7.81L198.98,100.55
            C198.98,100.55,198.98,100.55,198.98,100.55z"/>
        <path d="M217.94,100.61c-0.03,0-0.05,0-0.08,0c-3.36-0.07-6.08-3.1-6.08-6.8v-2.46c0-3.75,2.78-6.81,6.2-6.81h1.5
            c3.42,0,6.2,3.05,6.2,6.81l0,2.55c-0.04,3.71-2.81,6.72-6.2,6.72L217.94,100.61C217.94,100.61,217.94,100.61,217.94,100.61z
             M218.04,98.61h1.44c2.32,0,4.2-2.16,4.2-4.81v-2.46c0-2.65-1.88-4.81-4.2-4.81h-1.5c-2.32,0-4.2,2.16-4.2,4.81v2.46
            c0,2.65,1.88,4.81,4.2,4.81C218,98.6,218.02,98.6,218.04,98.61z"/>
        <path d="M169.28,100.7h-1.41c-3.92,0-7.1-3.54-7.1-7.89V82.27c0-4.57,2.99-7.89,7.1-7.89h5.95v2h-5.95c-3,0-5.1,2.42-5.1,5.89
            v10.54c0,3.25,2.29,5.89,5.1,5.89h1.41c2.81,0,5.1-2.64,5.1-5.89v-1.9h-5.06v-2h6.06c0.55,0,1,0.45,1,1v2.9
            C176.38,97.16,173.19,100.7,169.28,100.7z"/>
        <g>
            <polygon points="80,100.27 76.81,90.56 78.71,89.93 82.11,100.27 		"/>
            <path d="M71.19,100.27h-2V74.54h7.96c1.64,0,2.96,0.51,3.95,1.52c1.4,1.43,2.04,3.78,1.95,7.17c-0.3,5.09-2.51,7.92-6.24,8.03v0
                h-5.62L71.19,100.27z M71.19,89.26h5.4c2.72,0,4.22-2.06,4.46-6.11c0.07-2.75-0.4-4.67-1.38-5.69c-0.6-0.62-1.43-0.92-2.52-0.92
                h-5.96V89.26z"/>
        </g>
        <path d="M111.16,100.27l3.79-13.71l3.79,13.71h2.05l6.74-25.86h-2.07l-5.72,21.95l-3.77-13.64c-0.12-0.43-0.51-0.73-0.96-0.73h-0.1
            c-0.45,0-0.84,0.3-0.96,0.73l-3.77,13.65l-5.73-21.96h-2.07l6.75,25.86H111.16z"/>
    </g>
</svg>