<?xml version="1.0" encoding="utf-8"?>
<svg version="1.1" id="Layer_1" xmlns="http://www.w3.org/2000/svg" xmlns:xlink="http://www.w3.org/1999/xlink" x="0px" y="0px"
	 viewBox="0 0 850 500" style="enable-background:new 0 0 850 500;" xml:space="preserve">
<path d="M75.93,368.63h2.96l-1.79,26.06H7.75v-2.84h1.73c4.16,0,6.84-0.56,8.06-1.67c1.21-1.11,1.99-2.52,2.32-4.23
	c0.33-1.71,0.49-6.06,0.49-13.06v-41.07c0-6.38-0.18-10.58-0.52-12.6c-0.35-2.02-1.15-3.43-2.41-4.23c-1.26-0.8-3.9-1.2-7.94-1.2
	v-2.84h59.84l1.98,20.87h-2.9c-1.32-5.85-2.93-9.99-4.85-12.44s-4.19-3.99-6.82-4.63s-6.88-0.96-12.72-0.96H32.39v35.14h8.89
	c4.08,0,6.93-0.35,8.55-1.05c1.62-0.7,2.7-1.76,3.21-3.18c0.51-1.42,0.77-4.19,0.77-8.31h2.9v28.65h-2.9c0-4.65-0.39-7.77-1.17-9.36
	c-0.78-1.58-1.92-2.61-3.43-3.09c-1.5-0.47-4.04-0.71-7.63-0.71h-9.2v19.82c0,9.92,0.64,15.76,1.92,17.51
	c1.28,1.75,4.71,2.62,10.31,2.62h6.24c4.4,0,8.03-0.57,10.87-1.7c2.84-1.13,5.55-3.46,8.12-6.98
	C72.41,379.65,74.44,374.8,75.93,368.63z"/>
<path d="M141.45,380.24l30.51-69.29h25.69v2.84h-3.09c-4.12,0-6.81,0.34-8.09,1.02c-1.28,0.68-2.13,1.95-2.56,3.8
	c-0.43,1.85-0.65,6.26-0.65,13.21v41.07c0,6.59,0.16,10.9,0.49,12.94c0.33,2.04,1.16,3.55,2.5,4.54s3.9,1.48,7.69,1.48h3.71v2.84
	h-40.02v-2.84h2.96c3.54,0,6-0.45,7.38-1.36c1.38-0.9,2.26-2.32,2.66-4.23c0.39-1.92,0.59-6.37,0.59-13.37V319.6l-33.16,75.09h-2.9
	l-33.41-75.09v49.03c0,6.71,0.21,11.28,0.62,13.71c0.41,2.43,1.69,4.56,3.83,6.39c2.14,1.83,5.15,2.87,9.02,3.12v2.84H85.25v-2.84
	c3.58-0.21,6.49-1.18,8.74-2.93c2.24-1.75,3.61-3.9,4.11-6.45s0.74-7.29,0.74-14.2v-36.44c0-6.67-0.2-10.97-0.59-12.91
	c-0.39-1.94-1.21-3.27-2.47-4.01c-1.26-0.74-4-1.11-8.24-1.11h-2.28v-2.84h25.5L141.45,380.24z"/>
<path d="M203.32,313.79v-2.84h38.29v2.84h-1.79c-4.12,0-6.81,0.34-8.09,1.02c-1.28,0.68-2.13,1.95-2.56,3.8
	c-0.43,1.85-0.65,6.26-0.65,13.21v41.07c0,6.59,0.15,10.9,0.46,12.94c0.31,2.04,1.13,3.55,2.47,4.54s3.9,1.48,7.69,1.48h2.47v2.84
	h-38.29v-2.84h2.47c3.58,0,6.06-0.45,7.44-1.36c1.38-0.9,2.25-2.32,2.62-4.23c0.37-1.92,0.56-6.37,0.56-13.37v-41.07
	c0-6.67-0.18-10.97-0.56-12.91c-0.37-1.94-1.19-3.27-2.47-4.01c-1.28-0.74-4.04-1.11-8.28-1.11H203.32z"/>
<path d="M303.18,358.93h36.13v2.96c-3.99,0-6.7,0.4-8.12,1.2c-1.42,0.8-2.36,2.14-2.81,4.01s-0.68,6.41-0.68,13.62v8.89
	c-0.99-0.16-1.87-0.25-2.66-0.25c-3.17,0-7.33,0.97-12.47,2.9c-7,2.63-13.48,3.95-19.45,3.95c-11.98,0-21.94-3.94-29.89-11.83
	c-7.95-7.88-11.92-17.88-11.92-29.98c0-11.98,3.79-22.48,11.36-31.49c7.57-9.02,17.87-13.52,30.88-13.52
	c11.2,0,20.46,4.12,27.79,12.35c1.36-2.88,2.22-5.99,2.59-9.32h2.96v27.97h-2.96c-1.19-8.6-4.46-15.42-9.79-20.44
	c-5.33-5.02-11.81-7.53-19.42-7.53c-7.86,0-14.72,2.92-20.56,8.77c-5.85,5.85-8.77,16.22-8.77,31.12c0,14.86,2.82,25.39,8.46,31.59
	c5.64,6.2,12.64,9.29,21,9.29c4.28,0,8.17-0.87,11.67-2.62c3.5-1.75,5.89-3.88,7.16-6.39c1.28-2.51,1.91-5.68,1.91-9.51
	c0-4.49-0.3-7.48-0.9-8.99s-1.51-2.51-2.75-3.03c-1.23-0.51-3.5-0.77-6.79-0.77h-1.98V358.93z"/>
<path d="M434.28,394.69h-22.54c-3.99-2.8-10.11-10.13-18.34-21.98c-2.63-3.79-5.37-7.42-8.21-10.9
	c-2.84-3.48-4.8-5.6-5.87-6.36c-1.07-0.76-2.74-1.14-5-1.14h-3.33v18.59c0,6.59,0.15,10.9,0.46,12.94c0.31,2.04,1.13,3.55,2.47,4.54
	s3.9,1.48,7.69,1.48h4.01v2.84h-40.08v-2.84h2.72c3.58,0,6.06-0.45,7.44-1.36c1.38-0.9,2.25-2.32,2.62-4.23
	c0.37-1.92,0.56-6.37,0.56-13.37v-41.07c0-6.67-0.19-10.97-0.56-12.91c-0.37-1.94-1.19-3.27-2.47-4.01
	c-1.28-0.74-4.04-1.11-8.27-1.11h-1.42v-2.84l11.98-0.62c7.99-0.37,14.33-0.56,19.02-0.56c7.99,0,14.48,0.74,19.48,2.22
	c5,1.48,9.05,3.91,12.13,7.29c3.09,3.38,4.63,7.41,4.63,12.1c0,5.47-2.02,10.15-6.05,14.02c-4.04,3.87-9.96,6.28-17.79,7.22
	c3.5,1.69,9.14,7.78,16.92,18.28c6.34,8.52,11.32,14.1,14.94,16.74c3.62,2.63,7.9,4.04,12.84,4.2V394.69z M370.99,351.46
	c3.09-0.08,6.28-0.21,9.57-0.37c3.29-0.16,6.15-0.62,8.58-1.36c2.43-0.74,4.39-1.82,5.9-3.24c1.5-1.42,2.69-3.28,3.55-5.59
	c0.86-2.3,1.3-5.15,1.3-8.52c0-5.89-1.47-10.6-4.42-14.14c-2.94-3.54-9.36-5.31-19.24-5.31c-1.52,0-3.27,0.08-5.25,0.25V351.46z"/>
<path d="M489.12,363.81h-31.8l-2.16,5.31c-3.21,7.7-4.82,12.72-4.82,15.07c0,2.51,0.85,4.42,2.56,5.71
	c1.71,1.3,3.9,1.95,6.58,1.95v2.84h-24.89v-2.84c3.71-0.58,6.46-1.88,8.28-3.92c1.81-2.04,3.99-6.33,6.55-12.88
	c0.21-0.62,1.19-3.01,2.96-7.16l24.33-58.11h2.41l27.97,66.51l3.83,8.77c0.87,1.98,2.03,3.53,3.49,4.66
	c1.46,1.13,3.65,1.84,6.58,2.13v2.84h-32.92v-2.84c4.03,0,6.76-0.3,8.18-0.9c1.42-0.6,2.13-1.78,2.13-3.55c0-0.9-0.95-3.6-2.84-8.09
	L489.12,363.81z M488.07,361.03l-14.82-35.69l-14.76,35.69H488.07z"/>
<path d="M516.85,331.08h-2.84l0.43-20.13h81.27l0.43,20.13h-2.66c-0.95-5.52-2.24-9.5-3.89-11.95
	c-1.65-2.45-3.42-3.95-5.31-4.51c-1.89-0.56-5.13-0.83-9.7-0.83h-13.46v59.1c0,6.55,0.15,10.85,0.46,12.91
	c0.31,2.06,1.14,3.58,2.5,4.57c1.36,0.99,3.91,1.48,7.66,1.48h4.08v2.84h-41.75v-2.84h4.32c3.58,0,6.06-0.45,7.44-1.36
	c1.38-0.9,2.26-2.32,2.66-4.23c0.39-1.92,0.59-6.37,0.59-13.37v-59.1h-12.41c-5.39,0-9.02,0.26-10.87,0.77s-3.59,2.07-5.22,4.66
	C518.96,321.82,517.71,325.77,516.85,331.08z"/>
<path d="M602.32,313.79v-2.84h38.29v2.84h-1.79c-4.12,0-6.81,0.34-8.09,1.02c-1.28,0.68-2.13,1.95-2.56,3.8
	c-0.43,1.85-0.65,6.26-0.65,13.21v41.07c0,6.59,0.15,10.9,0.46,12.94c0.31,2.04,1.13,3.55,2.47,4.54c1.34,0.99,3.9,1.48,7.69,1.48
	h2.47v2.84h-38.29v-2.84h2.47c3.58,0,6.06-0.45,7.44-1.36c1.38-0.9,2.25-2.32,2.62-4.23c0.37-1.92,0.56-6.37,0.56-13.37v-41.07
	c0-6.67-0.19-10.97-0.56-12.91c-0.37-1.94-1.2-3.27-2.47-4.01c-1.28-0.74-4.04-1.11-8.27-1.11H602.32z"/>
<path d="M650.3,352.27c0-12.93,4.32-23.3,12.97-31.12c8.64-7.82,19.43-11.73,32.36-11.73c13.05,0,23.95,3.87,32.7,11.61
	c8.75,7.74,13.12,18.3,13.12,31.68c0,12.97-4.19,23.47-12.57,31.49c-8.38,8.03-19.4,12.04-33.07,12.04
	c-13.3,0-24.21-4.01-32.73-12.04C654.56,376.16,650.3,365.52,650.3,352.27z M664.44,352.7c0,13.46,2.69,23.57,8.06,30.32
	c5.37,6.75,13.43,10.13,24.18,10.13c9.43,0,16.88-3.38,22.36-10.13c5.47-6.75,8.21-16.82,8.21-30.2c0-13.01-2.7-22.98-8.09-29.92
	c-5.39-6.94-13.21-10.41-23.47-10.41c-10.09,0-17.81,3.39-23.19,10.16S664.44,339.44,664.44,352.7z"/>
<path d="M825.74,396.6l-59.22-78.49v58.11c0,4.82,0.24,7.99,0.71,9.51c0.47,1.52,1.82,2.92,4.04,4.2
	c2.22,1.28,5.56,1.91,10,1.91v2.84h-31.25v-2.84c3.99-0.29,7.04-1.02,9.14-2.19s3.34-2.44,3.74-3.8c0.39-1.36,0.59-4.57,0.59-9.63
	v-44.4c0-6.42-0.3-10.72-0.9-12.91c-0.6-2.18-1.54-3.58-2.84-4.2s-4.19-0.93-8.68-0.93v-2.84h24.7l49.59,65.52v-50.08
	c0-3.71-0.38-6.3-1.14-7.78c-0.76-1.48-2.32-2.66-4.66-3.52s-5.17-1.3-8.46-1.3v-2.84h30.38v2.84c-3.54,0.29-6.33,0.97-8.37,2.04
	c-2.04,1.07-3.33,2.36-3.89,3.86c-0.56,1.5-0.83,4.04-0.83,7.63v69.29H825.74z"/>
<path d="M183.45,461.42c5.95,0.44,10.36,1.92,13.25,4.44c2.88,2.52,4.33,5.68,4.33,9.46c0,3.3-0.98,6.14-2.94,8.52
	c-1.96,2.38-4.46,3.94-7.51,4.67c-3.05,0.73-7.14,1.1-12.26,1.1h-20.55v-1.78h2.01c2.24,0,3.79-0.28,4.65-0.85
	c0.86-0.57,1.41-1.45,1.64-2.65c0.23-1.2,0.35-3.98,0.35-8.36v-25.49c0-4.25-0.12-6.99-0.37-8.23c-0.25-1.24-0.76-2.08-1.54-2.55
	c-0.79-0.46-2.5-0.7-5.16-0.7h-1v-1.78l8.61-0.23l9.81-0.31c14.32,0,21.48,4.12,21.48,12.36c0,3.4-1.23,6.13-3.69,8.19
	S188.39,460.7,183.45,461.42z M173.98,460.68c0.64,0.03,1.18,0.04,1.62,0.04c5.56,0,9.36-0.88,11.39-2.63
	c2.03-1.75,3.05-4.58,3.05-8.5c0-2.73-0.4-4.84-1.2-6.33s-2-2.65-3.59-3.46c-1.6-0.81-4.33-1.22-8.19-1.22c-1,0-2.03,0.04-3.09,0.12
	V460.68z M173.98,462.58v11.67c0,4.97,0.09,8.12,0.27,9.46c0.18,1.34,0.66,2.36,1.45,3.05c0.79,0.7,2.34,1.04,4.65,1.04
	c4.12,0,7.21-1.05,9.27-3.17c2.06-2.11,3.09-5.28,3.09-9.5c0-4.33-1.17-7.51-3.5-9.56c-2.33-2.05-6.43-3.07-12.3-3.07
	C175.99,462.5,175.01,462.53,173.98,462.58z"/>
<path d="M262.05,489.62h-14.1c-2.5-1.75-6.32-6.33-11.47-13.75c-1.65-2.37-3.36-4.64-5.14-6.82
	c-1.78-2.18-3-3.5-3.67-3.98c-0.67-0.48-1.71-0.71-3.13-0.71h-2.09v11.63c0,4.12,0.1,6.82,0.29,8.09c0.19,1.27,0.71,2.22,1.54,2.84
	s2.44,0.93,4.81,0.93h2.51v1.78h-25.07v-1.78h1.7c2.24,0,3.79-0.28,4.65-0.85s1.41-1.45,1.64-2.65c0.23-1.2,0.35-3.98,0.35-8.36
	V450.3c0-4.17-0.12-6.86-0.35-8.07c-0.23-1.21-0.75-2.05-1.54-2.51c-0.8-0.46-2.52-0.7-5.18-0.7h-0.89v-1.78l7.49-0.39
	c5-0.23,8.96-0.35,11.9-0.35c5,0,9.06,0.46,12.19,1.39c3.13,0.93,5.66,2.45,7.59,4.56c1.93,2.11,2.9,4.63,2.9,7.57
	c0,3.43-1.26,6.35-3.79,8.77c-2.52,2.42-6.23,3.93-11.12,4.52c2.19,1.06,5.72,4.87,10.58,11.43c3.96,5.33,7.08,8.82,9.35,10.47
	c2.27,1.65,4.94,2.52,8.03,2.63V489.62z M222.46,462.58c1.93-0.05,3.93-0.13,5.99-0.23c2.06-0.1,3.85-0.39,5.37-0.85
	c1.52-0.46,2.75-1.14,3.69-2.03c0.94-0.89,1.68-2.05,2.22-3.5c0.54-1.44,0.81-3.22,0.81-5.33c0-3.68-0.92-6.63-2.76-8.85
	c-1.84-2.21-5.85-3.32-12.03-3.32c-0.95,0-2.05,0.05-3.28,0.15V462.58z"/>
<path d="M307.35,473.31h1.85l-1.12,16.3h-43.38v-1.78h1.08c2.6,0,4.28-0.35,5.04-1.04c0.76-0.7,1.24-1.58,1.45-2.65
	c0.21-1.07,0.31-3.79,0.31-8.17V450.3c0-3.99-0.11-6.62-0.33-7.88s-0.72-2.14-1.51-2.65c-0.79-0.5-2.44-0.75-4.96-0.75v-1.78h37.43
	l1.24,13.06h-1.82c-0.82-3.66-1.83-6.25-3.03-7.78s-2.62-2.5-4.27-2.9c-1.65-0.4-4.3-0.6-7.96-0.6h-7.26v21.98h5.56
	c2.55,0,4.33-0.22,5.35-0.66c1.02-0.44,1.69-1.1,2.01-1.99c0.32-0.89,0.48-2.62,0.48-5.2h1.82v17.92h-1.82
	c0-2.91-0.24-4.86-0.73-5.85c-0.49-0.99-1.2-1.63-2.14-1.93c-0.94-0.29-2.53-0.44-4.77-0.44h-5.75v12.4c0,6.21,0.4,9.86,1.2,10.95
	c0.8,1.09,2.95,1.64,6.45,1.64h3.9c2.75,0,5.02-0.35,6.8-1.06c1.78-0.71,3.47-2.16,5.08-4.36S306.43,477.18,307.35,473.31z"/>
<path d="M366.22,490.89h-1.74l-15.95-43.18l-13.94,43.18h-1.85L320.1,450.1c-1.13-3.71-1.95-6.17-2.45-7.4
	c-0.5-1.22-1.16-2.12-1.97-2.7c-0.81-0.58-2.16-0.91-4.04-0.99v-1.78h19.66v1.78c-2.37,0.15-3.89,0.5-4.56,1.02
	c-0.67,0.53-1,1.27-1,2.22c0,0.85,0.54,3.03,1.62,6.53l9.35,30.51l13.67-42.06h2.16l15.37,42.06l8-27.81
	c1.06-3.76,1.58-6.22,1.58-7.38c0-3.4-1.82-5.1-5.45-5.1v-1.78h14.29v1.78c-2.11,0.15-3.68,0.93-4.71,2.34
	c-1.03,1.4-2.33,4.77-3.9,10.1L366.22,490.89z"/>
<path d="M388.66,439.02v-1.78h23.95v1.78h-1.12c-2.58,0-4.26,0.21-5.06,0.64c-0.8,0.42-1.33,1.22-1.6,2.38
	c-0.27,1.16-0.41,3.91-0.41,8.27v25.69c0,4.12,0.1,6.82,0.29,8.09c0.19,1.27,0.71,2.22,1.54,2.84s2.44,0.93,4.81,0.93h1.54v1.78
	h-23.95v-1.78h1.54c2.24,0,3.79-0.28,4.65-0.85c0.86-0.57,1.41-1.45,1.64-2.65c0.23-1.2,0.35-3.98,0.35-8.36V450.3
	c0-4.17-0.12-6.86-0.35-8.07c-0.23-1.21-0.75-2.05-1.54-2.51c-0.8-0.46-2.52-0.7-5.18-0.7H388.66z"/>
<path d="M463.32,490.81l-37.04-49.09v36.35c0,3.01,0.15,5,0.44,5.95c0.3,0.95,1.14,1.83,2.53,2.63
	c1.39,0.8,3.48,1.2,6.26,1.2v1.78h-19.54v-1.78c2.5-0.18,4.4-0.64,5.72-1.37c1.31-0.73,2.09-1.53,2.34-2.38
	c0.24-0.85,0.37-2.86,0.37-6.03V450.3c0-4.02-0.19-6.71-0.56-8.07c-0.37-1.36-0.96-2.24-1.78-2.63c-0.81-0.39-2.62-0.58-5.43-0.58
	v-1.78h15.45l31.02,40.98V446.9c0-2.32-0.24-3.94-0.71-4.87c-0.48-0.93-1.45-1.66-2.92-2.2c-1.47-0.54-3.23-0.81-5.29-0.81v-1.78h19
	v1.78c-2.21,0.18-3.96,0.61-5.23,1.28s-2.09,1.47-2.43,2.41s-0.52,2.53-0.52,4.77v43.34H463.32z"/>
<path d="M510.45,467.25h22.6v1.85c-2.5,0-4.19,0.25-5.08,0.75c-0.89,0.5-1.47,1.34-1.76,2.51s-0.42,4.01-0.42,8.52v5.56
	c-0.62-0.1-1.17-0.15-1.66-0.15c-1.98,0-4.58,0.61-7.8,1.82c-4.38,1.65-8.43,2.47-12.17,2.47c-7.49,0-13.73-2.46-18.69-7.4
	c-4.97-4.93-7.46-11.18-7.46-18.75c0-7.49,2.37-14.06,7.11-19.7c4.74-5.64,11.17-8.46,19.31-8.46c7,0,12.8,2.58,17.38,7.72
	c0.85-1.8,1.39-3.75,1.62-5.83h1.85v17.5h-1.85c-0.75-5.38-2.79-9.64-6.12-12.78s-7.38-4.71-12.15-4.71
	c-4.92,0-9.21,1.83-12.86,5.48c-3.66,3.66-5.48,10.15-5.48,19.47c0,9.3,1.76,15.88,5.29,19.76c3.53,3.88,7.9,5.81,13.13,5.81
	c2.68,0,5.11-0.55,7.3-1.64c2.19-1.09,3.68-2.43,4.48-4c0.8-1.57,1.2-3.55,1.2-5.95c0-2.81-0.19-4.68-0.56-5.62
	s-0.95-1.57-1.72-1.89s-2.19-0.48-4.25-0.48h-1.24V467.25z"/>
<path d="M604.69,469.96h1.66v18.35h-1.66c-0.46-2.08-1.3-3.93-2.51-5.52c-4.61,5.2-10.49,7.8-17.65,7.8
	c-7.57,0-13.76-2.39-18.56-7.18c-4.8-4.79-7.2-11.12-7.2-19c0-5.18,1.11-10.05,3.32-14.62c2.21-4.57,5.3-7.96,9.27-10.18
	c3.96-2.21,8.32-3.32,13.06-3.32c3.91,0,7.46,0.8,10.64,2.41c3.18,1.61,5.56,3.39,7.13,5.35c1.11-2.19,1.78-4.46,2.01-6.8h1.7
	l0.46,19.85h-1.66c-1.16-7.05-3.52-11.96-7.09-14.71c-3.57-2.76-7.59-4.13-12.07-4.13c-5.49,0-9.84,2.23-13.08,6.68
	s-4.85,10.83-4.85,19.12c0,7.85,1.76,13.87,5.29,18.06c3.53,4.19,7.92,6.28,13.17,6.28c2.81,0,5.68-0.68,8.61-2.05
	s5.26-3.68,6.97-6.93C603.37,476.14,604.38,472.99,604.69,469.96z"/>
<path d="M615.62,463.08c0-8.08,2.7-14.57,8.11-19.47c5.41-4.89,12.15-7.34,20.24-7.34c8.16,0,14.98,2.42,20.45,7.26
	c5.47,4.84,8.21,11.45,8.21,19.81c0,8.11-2.62,14.68-7.86,19.7c-5.24,5.02-12.13,7.53-20.68,7.53c-8.32,0-15.14-2.51-20.47-7.53
	S615.62,471.37,615.62,463.08z M624.47,463.35c0,8.42,1.68,14.74,5.04,18.96c3.36,4.22,8.4,6.33,15.12,6.33
	c5.9,0,10.56-2.11,13.98-6.33c3.42-4.22,5.14-10.52,5.14-18.89c0-8.14-1.69-14.37-5.06-18.71c-3.37-4.34-8.27-6.51-14.68-6.51
	c-6.31,0-11.14,2.12-14.5,6.35C626.15,448.8,624.47,455.06,624.47,463.35z"/>
<path d="M676.46,486.72c0-1.13,0.41-2.1,1.22-2.92s1.78-1.22,2.92-1.22c1.16,0,2.14,0.41,2.96,1.22s1.22,1.78,1.22,2.92
	c0,1.16-0.41,2.14-1.24,2.96s-1.8,1.22-2.94,1.22c-1.16,0-2.14-0.42-2.94-1.25C676.85,488.8,676.46,487.83,676.46,486.72z"/>
<g>
	<path d="M529.81,255.62H316.65V9.56h213.15V255.62z M323.65,248.62h199.15V16.56H323.65V248.62z"/>
</g>
<path d="M499.92,170.04c-3.51,14.63-8.32,26.11-14.41,34.45c-6.1,8.34-12.51,13.85-19.24,16.53
	c-6.73,2.68-15.31,4.02-25.75,4.02h-14.77c-13.26,0-21.41-2.07-24.43-6.22c-1.05-1.44-1.92-4.09-2.61-7.89h9.51
	c15.88,0,28.55-1.14,38-3.41s17.21-7.1,23.28-14.48c6.06-7.38,9.1-16.18,9.1-26.39c0-11.73-4.47-21.5-13.41-29.32
	c-8.94-7.82-22.62-12.41-41.05-13.76c15.32-2.23,26.79-6.54,34.41-12.93c7.62-6.38,11.43-14.84,11.43-25.37
	c0-25.53-22.18-38.3-66.54-38.3l-6.65,0.21v-7.03h27.5c13.85,0,23.89,0.76,30.13,2.27c6.24,1.51,11.63,5.17,16.16,10.97
	c4.53,5.8,8.36,15.63,11.48,29.48h6.88l-4.68-49.44H342.52v6.73c9.56,0,15.82,0.95,18.8,2.85c1.82,1.17,3.24,2.88,4.26,5.13
	l-19.22,0.52v5.51h3.11c8.22,0,13.54,0.72,15.98,2.15c0.82,0.48,1.54,1.12,2.17,1.87c0.43,5.53,0.65,13.74,0.65,24.68v97.28
	c0,8.21-0.1,14.88-0.29,20.02c-0.76,1.04-1.68,1.93-2.77,2.64c-2.67,1.76-7.48,2.63-14.42,2.63h-6.22v5.51h22.56
	c-0.01,0.04-0.02,0.1-0.02,0.14c-0.78,4.05-2.61,7.39-5.49,10.02c-2.88,2.63-9.24,3.95-19.09,3.95h-4.1v6.73H502.7l4.24-61.73
	H499.92z M442.05,136.43c7.22,6.34,10.83,16.22,10.83,29.62c0,13.09-3.19,22.9-9.58,29.44c-6.38,6.54-15.96,9.81-28.72,9.81
	c-7.18,0-11.99-1.08-14.42-3.23c-1.15-1.02-2.08-2.26-2.81-3.72c-0.37-5.84-0.55-12.82-0.55-21v-46.96l0.01-0.57
	c0-0.08,0.01-0.71,0.01-0.79c0.01-1.26,0.01-1.24,0.01-1.97c2.47-0.1,4.84-0.15,7.11-0.15
	C422.12,126.91,434.83,130.08,442.05,136.43z M404.41,52.83c11.97,0,20.43,1.26,25.37,3.77c4.95,2.51,8.66,6.08,11.13,10.71
	c2.47,4.63,3.71,11.17,3.71,19.63c0,12.13-3.15,20.91-9.46,26.33c-6.3,5.43-18.07,8.14-35.31,8.14c-0.88,0-1.91-0.02-3.06-0.05
	V53.08C399.38,52.92,401.93,52.83,404.41,52.83z"/>
<g>
	<path d="M480.72,131.48c1.52,3.07,2.28,9.12,2.28,18.14h5.63V94.06h-5.63c0,7.98-0.5,13.35-1.5,16.1
		c-1,2.75-3.07,4.81-6.23,6.17c-2.47,1.06-6.4,1.71-11.79,1.94c0,0.37,0.12,5.03,0.16,5.92c4.69,0.16,8.16,0.6,10.43,1.31
		C476.99,126.41,479.2,128.41,480.72,131.48z"/>
</g>
</svg>
