<?xml version="1.0" encoding="utf-8"?>
<!-- Generator: Adobe Illustrator 26.5.0, SVG Export Plug-In . SVG Version: 6.00 Build 0)  -->
<svg version="1.1" id="Layer_1" xmlns="http://www.w3.org/2000/svg" xmlns:xlink="http://www.w3.org/1999/xlink" x="0px" y="0px"
	 viewBox="0 0 300 300" style="enable-background:new 0 0 300 300;" xml:space="preserve">
<g>
	<g>
		<path d="M256.56,272.72H43.4V26.66h213.15v246.06H256.56z M50.4,265.72h199.15V33.66H50.4V265.72z"/>
	</g>
	<path d="M226.67,187.14c-3.51,14.63-8.32,26.11-14.41,34.45c-6.1,8.34-12.51,13.85-19.24,16.53c-6.73,2.68-15.31,4.02-25.75,4.02
		H152.5c-13.26,0-21.41-2.07-24.43-6.22c-1.05-1.44-1.92-4.09-2.61-7.89h9.51c15.88,0,28.55-1.14,38-3.41s17.21-7.1,23.28-14.48
		c6.06-7.38,9.1-16.18,9.1-26.39c0-11.73-4.47-21.5-13.41-29.32c-8.94-7.82-22.62-12.41-41.05-13.76
		c15.32-2.23,26.79-6.54,34.41-12.93c7.62-6.38,11.43-14.84,11.43-25.37c0-25.53-22.18-38.3-66.54-38.3l-6.65,0.21v-7.03h27.5
		c13.85,0,23.89,0.76,30.13,2.27c6.24,1.51,11.63,5.17,16.16,10.97s8.36,15.63,11.48,29.48h6.88l-4.68-49.44H69.28v6.73
		c9.56,0,15.82,0.95,18.8,2.85c1.82,1.17,3.24,2.88,4.26,5.13l-19.22,0.52v5.51h3.11c8.22,0,13.54,0.72,15.98,2.15
		c0.82,0.48,1.54,1.12,2.17,1.87c0.43,5.53,0.65,13.74,0.65,24.68v97.28c0,8.21-0.1,14.88-0.29,20.02
		c-0.76,1.04-1.68,1.93-2.77,2.64c-2.67,1.76-7.48,2.63-14.42,2.63h-6.22v5.51h22.54c-0.01,0.04-0.02,0.1-0.02,0.14
		c-0.78,4.05-2.61,7.39-5.49,10.02s-9.24,3.95-19.09,3.95h-4.1v6.73h164.27l4.24-61.73h-7.01V187.14z M168.8,153.53
		c7.22,6.34,10.83,16.22,10.83,29.62c0,13.09-3.19,22.9-9.58,29.44c-6.38,6.54-15.96,9.81-28.72,9.81c-7.18,0-11.99-1.08-14.42-3.23
		c-1.15-1.02-2.08-2.26-2.81-3.72c-0.37-5.84-0.55-12.82-0.55-21v-46.96l0.01-0.57c0-0.08,0.01-0.71,0.01-0.79
		c0.01-1.26,0.01-1.24,0.01-1.97c2.47-0.1,4.84-0.15,7.11-0.15C148.87,144.01,161.58,147.18,168.8,153.53z M131.16,69.93
		c11.97,0,20.43,1.26,25.37,3.77c4.95,2.51,8.66,6.08,11.13,10.71s3.71,11.17,3.71,19.63c0,12.13-3.15,20.91-9.46,26.33
		c-6.3,5.43-18.07,8.14-35.31,8.14c-0.88,0-1.91-0.02-3.06-0.05V70.18C126.13,70.02,128.68,69.93,131.16,69.93z"/>
	<g>
		<path d="M207.47,148.58c1.52,3.07,2.28,9.12,2.28,18.14h5.62v-55.56h-5.63c0,7.98-0.5,13.35-1.5,16.1s-3.07,4.81-6.23,6.17
			c-2.47,1.06-6.4,1.71-11.79,1.94c0,0.37,0.12,5.03,0.16,5.92c4.69,0.16,8.16,0.6,10.43,1.31
			C203.74,143.51,205.95,145.51,207.47,148.58z"/>
	</g>
</g>
</svg>
